# xmcd
#
# Track frame offsets: 
#        182
#        5860
#        25020
#        45150
#        64710
#        84865
#        101090
#        124207
#        147875
#        167180
#        187392
#
# Disc length: 2787 seconds
#
# Revision: 0
# Processed by: cddbd v1.5.2PL0 Copyright (c) Steve Scherf et al.
# Submitted via: ExactAudioCopy v0.99pb4
#
DISCID=910ae10b
DTITLE=Big Bub - Comin' At Cha
DYEAR=1992
DGENRE=R&B
TTITLE0=Big Bub Intro
TTITLE1=I Don't Mind
TTITLE2=I Want U 4 Me
TTITLE3=Touch Me
TTITLE4=Hittin Skinz
TTITLE5=Talk Dirty
TTITLE6=Tellin' Me Stories
TTITLE7=Work It Out
TTITLE8=Take My Heart
TTITLE9=Simon Sez
TTITLE10=24-7 (Good Lovin')
EXTD=
EXTT0=
EXTT1=
EXTT2=
EXTT3=
EXTT4=
EXTT5=
EXTT6=
EXTT7=
EXTT8=
EXTT9=
EXTT10=
PLAYORDER=
